<?xml version="1.0" encoding="utf-8"?>
<!-- Generator: Adobe Illustrator 25.2.3, SVG Export Plug-In . SVG Version: 6.00 Build 0)  -->
<svg version="1.1" xmlns="http://www.w3.org/2000/svg" xmlns:xlink="http://www.w3.org/1999/xlink" x="0px" y="0px"
	 viewBox="0 0 600 600" style="enable-background:new 0 0 600 600;" xml:space="preserve">
<style type="text/css">
	.st0{fill:none;stroke:#6B81BE;stroke-linecap:round;stroke-linejoin:round;stroke-miterlimit:10;}
	.st1{fill:#F68D88;}
	.st2{fill:#ECBDBB;}
	.st3{fill:none;stroke:#ECBDBB;stroke-linecap:round;stroke-linejoin:round;stroke-miterlimit:10;}
	.st4{fill:#9AB3DA;}
	.st5{fill:#6B81BE;}
	.st6{fill:#404B7C;}
	.st7{enable-background:new    ;}
	.st8{fill:#FFFFFF;stroke:#272525;stroke-miterlimit:10;}
	.st9{fill:none;stroke:#DEEBFF;stroke-linecap:round;stroke-linejoin:round;stroke-miterlimit:10;}
	.st10{fill:#E9F3FF;}
	.st11{fill:none;stroke:#404B7C;stroke-linecap:round;stroke-linejoin:round;stroke-miterlimit:10;}
	.st12{fill:#FFFFFF;}
</style>
<g id="GROUND">
	<g>
		<g>
			<line class="st0" x1="391.7684631" y1="498.2259216" x2="485.1670837" y2="498.2259216"/>
			<line class="st0" x1="76.4648819" y1="498.2259216" x2="369.3528748" y2="498.2259216"/>
		</g>
		<g>
			<line class="st0" x1="169.2735901" y1="518.5380859" x2="122.599617" y2="518.5380859"/>
			<line class="st0" x1="452.4555359" y1="518.5380859" x2="184.4709778" y2="518.5380859"/>
		</g>
		<g>
			<line class="st0" x1="322.3270264" y1="538.8502808" x2="353.9590454" y2="538.8502808"/>
			<line class="st0" x1="169.6381073" y1="538.8502808" x2="311.8878479" y2="538.8502808"/>
		</g>
	</g>
</g>
<g id="PLANT">
	<g>
		<g>
			<g>
				<path class="st1" d="M144.124939,526.1776123c0,0-99.9863129-42.7484131-96.2281952-157.4216614
					C47.89674,368.7559509,153.3125916,404.6719971,144.124939,526.1776123z"/>
				<g>
					<path class="st2" d="M88.8837662,422.2379456c-15.7459259,1.3522949-28.1123734-4.0044556-37.3263779-10.9173584
						c2.0253067,9.4463806,4.7811127,18.2406921,8.0940247,26.3926697
						c7.8056793,3.0121155,17.0667648,4.4080505,27.9194946,2.8158569
						c18.3883514-2.6976624,32.492218-0.1063538,42.7223969,3.8528137
						c-2.4002686-5.0491943-5.0225983-9.8012085-7.8149033-14.2642212
						C113.2015915,424.7649841,101.9057312,421.1195679,88.8837662,422.2379456z"/>
					<path class="st2" d="M109.2075653,462.1773682c-15.5854492,4.3994446-29.0113831,1.2113037-39.4755554-4.0720215
						c5.618103,9.5664673,11.9157791,18.0146484,18.4141159,25.4054565
						c7.0335388,0.6040344,14.7940521-0.1890564,23.2165985-3.1222229
						c11.1393814-3.8792725,20.9753494-5.3293762,29.4449081-5.380188
						c-1.0324097-4.6181335-2.2534943-9.0518799-3.6329956-13.314209
						C128.6393738,459.6916504,119.1735992,459.3641663,109.2075653,462.1773682z"/>
				</g>
			</g>
			<line class="st3" x1="54.2749252" y1="379.7632751" x2="140.5094452" y2="518.5380859"/>
		</g>
		<g>
			<path class="st4" d="M134.525177,526.416687c0,0-41.5783768-85.4660339-123.1291351-72.1653748
				C11.39604,454.2513123,26.9705811,530.1602173,134.525177,526.416687z"/>
			<path class="st0" d="M28.2247162,463.8197937c0.7636471,0.1025696,96.4243622,58.2770691,96.4243622,58.2770691"/>
		</g>
		<g>
			<g>
				<path class="st1" d="M431.9971619,526.5735474c0,0,106.5466003-21.7374573,125.9583435-134.8182373
					C557.9555054,391.7553101,447.4665222,405.7069397,431.9971619,526.5735474z"/>
				<g>
					<path class="st2" d="M507.0379944,435.8876648c15.1510315,4.4955139,28.342865,1.7388916,38.7602234-3.1768799
						c-3.8861084,8.8449707-8.3565063,16.9041748-13.2431641,24.2219849
						c-8.2523804,1.3785095-17.6047974,0.8808289-27.9145813-2.8642578
						c-17.4683838-6.345459-31.8051453-6.6474609-42.6230164-4.8295593
						c3.3678894-4.4623718,6.8934631-8.5889587,10.5273132-12.3981934
						C482.7094421,433.4658508,494.5080261,432.1698608,507.0379944,435.8876648z"/>
					<path class="st2" d="M479.0875549,470.9160767c14.380188,7.4479065,28.1730957,7.0288086,39.4868469,3.960968
						c-7.4294739,8.2391052-15.2994385,15.2460022-23.1530151,21.1767578
						c-7.0110779-0.8247375-14.4528809-3.1643982-22.1122131-7.7336121
						c-10.1299438-6.0430603-19.4723816-9.4442139-27.7582092-11.1995544
						c1.9412537-4.3156433,4.0302124-8.4126282,6.2397766-12.309845
						C460.5544128,464.5680847,469.8922119,466.1535339,479.0875549,470.9160767z"/>
				</g>
			</g>
			<line class="st3" x1="549.491333" y1="401.2527161" x2="437.0770569" y2="519.8186035"/>
		</g>
		<g>
			<g>
				<path class="st4" d="M426.4124756,463.4866028c0,0,2.1593933-50.9923706,45.1645508-61.9177856
					C471.5770264,401.5688171,480.1738892,442.2832031,426.4124756,463.4866028z"/>
			</g>
		</g>
	</g>
</g>
<g id="INTEGRATED_6">
	<g>
		<g>
			<path class="st5" d="M434.2458801,186.8064728c-1.2124023,0-2.4248047-0.4627533-3.3503113-1.3877258
				c-1.8509827-1.8504791-1.8509827-4.8511505,0-6.7016296l40.5449524-40.5444336
				c0.8884888-0.8884735,2.093689-1.3877258,3.3503113-1.3877258h70.1782837c2.6171265,0,4.7385254,2.1214447,4.7385254,4.7385406
				s-2.1213989,4.7385406-4.7385254,4.7385406h-68.21521l-39.1577454,39.1567078
				C436.6716919,186.3437195,435.4582825,186.8064728,434.2458801,186.8064728z"/>
		</g>
		<g>
			<path class="st5" d="M573.1210938,155.3328705c-7.9291992,14.1945496-22.7556152,23.3978271-33.1276855,20.5336761
				c-1.927063-0.5370483-3.5697632-1.4426117-4.9069824-2.6746216l-18.6699219-14.9211731l37.560791-46.9115295
				l18.6804199,14.9527359l0.0526733,0.042099C579.449585,131.3348389,579.8919067,143.2021942,573.1210938,155.3328705z"/>
			<path class="st4" d="M521.2249146,160.8514557c10.3700562,2.8652344,25.2023926-6.3372345,33.132019-20.536438
				c7.9296875-14.1992035,5.9622803-28.0332336-4.4077759-30.8984604
				c-10.3702393-2.8652649-25.2040405,6.3266373-33.133667,20.5258408
				C508.8858032,144.1416016,510.8547058,157.9861908,521.2249146,160.8514557"/>
			<path class="st1" d="M529.2769775,146.432373c4.5559082,1.2587738,11.0722046-2.7841492,14.5559692-9.0223083
				s2.6194458-12.3158875-1.9364624-13.5746689c-4.5559692-1.2588043-11.072937,2.7794876-14.5567017,9.0176468
				S524.7210083,145.1735687,529.2769775,146.432373"/>
		</g>
	</g>
</g>
<g id="INTEGRATED_5">
	<g>
		<g>
			<path class="st5" d="M183.776062,441.6234436c-7.929184,14.1945496-22.7555695,23.3978271-33.1276855,20.5336609
				c-1.9270172-0.5370483-3.5697174-1.4425964-4.9069824-2.6746216l-18.6698914-14.9211731l37.5608063-46.9115295
				l18.6804199,14.9527588l0.0526428,0.0420837C190.1045837,417.6253967,190.5468903,429.4927673,183.776062,441.6234436z"/>
			<path class="st4" d="M131.8798981,447.1420288c10.3700867,2.8652344,25.2023773-6.3372498,33.1320343-20.536438
				c7.9296722-14.1992188,5.9622803-28.0332336-4.4077911-30.898468
				c-10.3702087-2.8652649-25.20401,6.3266296-33.1336823,20.5258484
				C119.5407944,430.4321594,121.5096893,444.2767639,131.8798981,447.1420288"/>
			<path class="st1" d="M139.9319916,432.7229309c4.5558929,1.2587891,11.0721893-2.7841492,14.5559387-9.0223083
				s2.6194305-12.3158875-1.9364777-13.5746765c-4.5559692-1.2587891-11.0729218,2.7795105-14.5566711,9.0176697
				S135.3760223,431.4641418,139.9319916,432.7229309"/>
		</g>
		<g>
			<path class="st5" d="M236.1650696,438.3979187h-57.407486c-2.6170959,0-4.7385406-2.12146-4.7385406-4.7385559
				s2.1214447-4.7385254,4.7385406-4.7385254h55.4449158l28.4065704-28.4065552
				c1.8509827-1.8509827,4.8506165-1.8509827,6.7015991,0c1.8504944,1.8499451,1.8504944,4.8506165,0,6.700592
				l-29.7947845,29.7947998C238.6268921,437.8991699,237.4216919,438.3979187,236.1650696,438.3979187z"/>
		</g>
	</g>
</g>
<g id="INTEGRATED_4">
	<g>
		<g>
			<path class="st5" d="M250.5111847,116.5361252c-7.929184,14.1945419-22.7555542,23.3978195-33.1276703,20.5336685
				c-1.9270325-0.5370483-3.5697174-1.4426117-4.9069977-2.6746216l-18.6698761-14.9211731l37.560791-46.9115219
				l18.6804352,14.9527359l0.0526276,0.0420914C256.8397217,92.5380859,257.2820129,104.4054489,250.5111847,116.5361252z"/>
			<path class="st4" d="M198.615036,122.0547104c10.3700714,2.8652267,25.2023773-6.3372345,33.1320343-20.536438
				s5.9622803-28.0332413-4.4077911-30.898468c-10.370224-2.8652649-25.2040253,6.3266373-33.1336823,20.5258484
				C186.2759247,105.3448563,188.244812,119.1894455,198.615036,122.0547104"/>
			<path class="st1" d="M206.6671143,107.6356201c4.5559082,1.2587814,11.0722046-2.7841492,14.555954-9.0223083
				s2.6194153-12.3158798-1.9364777-13.5746689c-4.5559692-1.2587967-11.0729218,2.7794952-14.5566711,9.0176544
				C201.24617,100.2944489,202.1111603,106.3768158,206.6671143,107.6356201"/>
		</g>
		<g>
			<path class="st6" d="M318.2442322,153.3647003c-1.2124023,0-2.4258423-0.462738-3.3503113-1.3877258l-39.1572266-39.156189
				h-35.085022c-2.6170959,0-4.7385406-2.1214447-4.7385406-4.7385406s2.1214447-4.7385406,4.7385406-4.7385406h37.0476074
				c1.2566223,0,2.4618225,0.4992599,3.3507996,1.3877335l40.5444336,40.5439224
				c1.8509827,1.8504791,1.8509827,4.8506165,0,6.7016144C320.6700439,152.9019623,319.456604,153.3647003,318.2442322,153.3647003z
				"/>
		</g>
	</g>
</g>
<g id="INTEGRATED_3">
	<g>
		<g>
			<path class="st5" d="M119.5199966,246.0331879c-7.9291916,14.1945343-22.7555695,23.3978119-33.1276779,20.5336761
				c-1.9270248-0.5370483-3.5697174-1.442627-4.9069977-2.6746216l-18.6698837-14.9211884l37.5607986-46.9115143
				l18.6804276,14.9527283l0.0526428,0.042099C125.8485184,222.035141,126.2908325,233.9025116,119.5199966,246.0331879z"/>
			<path class="st4" d="M67.6238403,251.5517731c10.3700714,2.8652191,25.2023697-6.3372345,33.1320343-20.536438
				c7.9296646-14.1992188,5.9622803-28.0332489-4.4077911-30.898468
				c-10.3702164-2.8652649-25.2040253,6.3266296-33.1336861,20.5258484
				C55.2847328,234.8419189,57.253624,248.6865082,67.6238403,251.5517731"/>
			<path class="st1" d="M75.6759262,237.1326752c4.5559006,1.2587891,11.072197-2.7841492,14.5559464-9.0223083
				s2.6194153-12.3158722-1.9364853-13.5746613c-4.5559616-1.2588043-11.0729141,2.7794952-14.5566711,9.0176544
				C70.2549667,229.7915192,71.1199646,235.8738708,75.6759262,237.1326752"/>
		</g>
		<g>
			<path class="st6" d="M177.3462219,282.1402588c-1.2129059,0-2.4253082-0.462738-3.3507996-1.3882446l-39.1556854-39.156189
				h-25.4264526c-2.6170959,0-4.7385406-2.1214447-4.7385406-4.7385406s2.1214447-4.7385254,4.7385406-4.7385254h27.3890228
				c1.2566223,0,2.4618225,0.4992523,3.3508148,1.3877258l40.5439148,40.5449371c1.8504791,1.8499756,1.8504791,4.850647,0,6.700592
				C179.7715454,281.6775208,178.5586243,282.1402588,177.3462219,282.1402588z"/>
		</g>
	</g>
</g>
<g id="GEAR">
	<g>
		<g class="st7">
			<g>
				<polygon class="st6" points="228.662384,266.1516113 285.9250183,311.3692627 262.8182678,302.3471985 205.5556488,257.1295471 
									"/>
			</g>
			<g>
				<polygon class="st6" points="317.6967163,135.8970184 374.9593506,181.1146698 381.051178,208.0213776 323.7885437,162.8037262 
									"/>
			</g>
			<g>
				<polygon class="st6" points="225.3466492,343.4954224 282.6092834,388.7130737 251.9163513,405.6213074 194.6537323,360.403656 
									"/>
			</g>
			<g>
				<polygon class="st4" points="409.2569275,128.3542023 466.5195312,173.5718536 449.6484985,207.2077332 392.3858643,161.990097 
									"/>
			</g>
			<g>
				<path class="st6" d="M348.9794006,225.8357086l57.2626038,45.2176666
					c-1.973175-1.5581665-4.2967834-2.7392578-6.9612427-3.4754333
					c-16.8773193-4.6631775-41.0190125,10.2964478-53.9243774,33.405365
					c-10.868927,19.4624023-10.3111877,38.5154114,0.2176208,46.8294983l-57.2626343-45.2176208
					c-10.5287781-8.3141174-11.0865479-27.3671265-0.2176208-46.8295135
					c12.905365-23.1089172,37.0470886-38.0685425,53.924408-33.4053802
					C344.6825867,223.0964661,347.0061951,224.2775726,348.9794006,225.8357086z"/>
			</g>
			<g>
				<path class="st8" d="M297.611145,408.4380188l-57.2626343-45.2176208
					c1.4468231,1.1424561,2.9666901,2.2064209,4.5591125,3.1877747l57.2626343,45.2176819
					C300.5778198,410.6444397,299.0579529,409.5805054,297.611145,408.4380188z"/>
			</g>
			<g>
				<path class="st6" d="M396.901123,165.1525879l57.2626038,45.2176666
					c6.4985046,5.1315308,11.5281067,11.8393707,15.0378113,19.7649231l-57.2626343-45.2176208
					C408.4292297,176.9919891,403.3995972,170.2841339,396.901123,165.1525879z"/>
			</g>
			<g>
				<path class="st6" d="M256.3441772,407.3379211l57.2626038,45.2176514
					c-5.5492859-0.362793-10.9499512-1.2284546-16.1412354-2.6628113c-4.3365479-1.1981812-8.3850403-2.7617188-12.182312-4.6024475
					l-57.2626343-45.2176208c3.797287,1.8407288,7.8457642,3.4042358,12.1823425,4.602417
					C245.3942108,406.1094666,250.7948914,406.9751587,256.3441772,407.3379211z"/>
			</g>
			<g>
				<polygon class="st5" points="276.6681213,374.392334 333.9307556,419.6099854 313.606781,452.5555725 256.3441772,407.3379211 
									"/>
			</g>
			<g>
				<path class="st6" d="M313.5073853,365.6117249l57.2626343,45.2176819
					c-12.5662537,5.4798889-25.0678406,8.5380249-36.8392639,8.7805786l-57.2626343-45.2176514
					C288.4395752,374.1498108,300.9411316,371.0916443,313.5073853,365.6117249z"/>
			</g>
			<g>
				<path class="st4" d="M442.6504211,167.9975739l57.2626038,45.2176514
					c3.2742615,9.7579346,4.9806519,20.6650848,5.0744629,32.4127197l-57.2626038-45.2176361
					C447.6310425,188.6626587,445.9246826,177.7555084,442.6504211,167.9975739z"/>
			</g>
			<g>
				<polygon class="st6" points="447.724884,200.4102936 504.9874878,245.6279449 475.0477295,266.272583 417.7851257,221.0549469 
									"/>
			</g>
			<g>
				<path class="st6" d="M417.7851257,221.0549469l57.2626038,45.2176666
					c-0.6300964,12.849762-3.6591492,26.7845764-9.1726074,41.2034302l-57.2626343-45.2176208
					C414.1259766,247.8395386,417.1549988,233.9047394,417.7851257,221.0549469z"/>
			</g>
			<line class="st9" x1="417.7851257" y1="221.0549469" x2="471.0359497" y2="263.1046753"/>
			<g>
				<path class="st6" d="M385.1074219,305.4037476l57.2626038,45.2176514
					c-9.6530151,13.4067688-20.7211609,25.3180847-32.5211182,35.3292847l-57.2626343-45.2176514
					C364.3862305,330.7218628,375.4543762,318.8105164,385.1074219,305.4037476z"/>
			</g>
			<g>
				<path class="st5" d="M354.548584,370.4228516l57.2626038,45.2176514
					c-11.3516541,8.7994995-23.137207,16.2425842-34.9599609,22.0930176l-57.2626343-45.2176208
					C331.4113464,386.6654358,343.1968994,379.2223511,354.548584,370.4228516z"/>
			</g>
			<g>
				<polygon class="st4" points="352.5862732,340.7330322 409.8489075,385.9506836 411.8112183,415.6405029 354.548584,370.4228516 
									"/>
			</g>
			<g>
				<polygon class="st6" points="410.6021423,309.8266602 467.8647766,355.0443115 442.3700562,350.6213989 
					385.1074219,305.4037476 				"/>
			</g>
			<line class="st9" x1="385.1074219" y1="305.4037476" x2="438.1396484" y2="347.2808533"/>
			<g>
				<path class="st4" d="M431.7194824,271.2805176l57.2626038,45.2176514
					c-3.0700684,7.0487366-6.5846558,14.1393738-10.5566406,21.2518005
					c-3.3100586,5.9271545-6.8330994,11.6967773-10.5606689,17.294342l-57.2626343-45.2176514
					c3.7276001-5.5975647,7.2506104-11.3671875,10.5606689-17.2943115
					C425.1348267,285.4198914,428.6494141,278.3292542,431.7194824,271.2805176z"/>
			</g>
			<g>
				<path class="st5" d="M410.6021423,309.8266602l-25.4947205-4.4229126
					c-9.6530457,13.4067688-20.7211914,25.3181152-32.5211487,35.3292847l1.9623108,29.6898193
					c-11.3516846,8.7994995-23.1372375,16.2425842-34.9599609,22.0930176l-6.0812378-26.9041443
					c-12.5662537,5.4799194-25.0678101,8.5380859-36.8392639,8.7806091l-20.3239441,32.9455872
					c-5.5492859-0.3627625-10.9499664-1.2284546-16.1412354-2.6628113
					c-4.3365784-1.1981812-8.3850555-2.7616882-12.1823425-4.6024475l16.8870239-33.6644897
					c-8.728363-5.3790894-15.2769775-13.2389526-19.5609741-22.9127502l-30.6929169,16.9082336
					c-3.2930756-9.7462769-5.0097198-20.6566467-5.092865-32.4013062l29.9371185-20.6615295
					c0.6351929-12.8157349,3.6693573-26.7817688,9.1643982-41.189209l-23.1067352-9.0220642
					c3.0802765-7.0459137,6.5846558-14.1393738,10.556839-21.2521362
					c3.3100586-5.9271393,6.8535461-11.6907501,10.581131-17.2882996l25.4846802,4.4197845
					c9.6450653-13.3924866,20.7209625-25.3181763,32.5393524-35.3407593l-1.9887085-29.6641235
					c11.3700867-8.8109131,23.1454468-16.2568359,34.9677734-22.1069946l6.0918274,26.9067078
					c12.5480652-5.4684448,25.0652161-8.5549316,36.8286438-8.7831726l20.3241577-32.9458923
					c5.5492859,0.3627625,10.9603882,1.2313309,16.151886,2.6657333c4.3261414,1.1953049,8.3822021,2.7447739,12.1636963,4.6138077
					l-16.8710632,33.6358948c8.7203674,5.3934021,15.2690125,13.2532654,19.5530396,22.9274292l30.7115173-16.9199524
					c3.2742615,9.7579346,4.9806213,20.6650848,5.0744629,32.4127197l-29.9397583,20.6446533
					c-0.630127,12.8497925-3.6591492,26.7845917-9.1726074,41.2034454l23.1069641,9.0221252
					c-3.0700684,7.0487366-6.5846558,14.1393738-10.5566711,21.2518311
					C417.8527527,298.4594727,414.3297424,304.2290955,410.6021423,309.8266602z M295.27005,306.069519
					c16.8770752,4.6631165,41.0163269-10.3136902,53.9216919-33.4226074s9.7034912-45.6235352-7.173584-50.2866211
					c-16.8773193-4.6631622-41.019043,10.296463-53.924408,33.4053802S278.3927307,301.4063721,295.27005,306.069519"/>
			</g>
			<polyline class="st9" points="419.3473206,180.8359985 442.6504211,167.9975739 459.8222961,181.5574036 			"/>
			<g>
				<path class="st9" d="M322.1044006,391.2466431c10.9771423-5.6441956,21.8979187-12.6486206,32.4441833-20.8237915"/>
			</g>
			<g>
				<path class="st9" d="M276.6681213,374.392334l-19.2377319,31.1847534"/>
			</g>
		</g>
	</g>
</g>
<g id="INTEGRATED_2">
	<g>
		<g>
			<path class="st5" d="M550.8470459,284.0838013h-89.4604797c-2.6170959,0-4.7385559-2.1214294-4.7385559-4.7385254
				s2.12146-4.7385559,4.7385559-4.7385559h89.4604797c2.6171265,0,4.7385254,2.12146,4.7385254,4.7385559
				S553.4641724,284.0838013,550.8470459,284.0838013z"/>
		</g>
		<g>
			<path class="st5" d="M583.7379761,297.3525696c-7.9291992,14.1945496-22.7555542,23.3978271-33.1276855,20.5336609
				c-1.927002-0.5370483-3.5697021-1.4425964-4.9069824-2.6746216l-18.6698608-14.9211731l37.560791-46.9115143
				l18.6804199,14.9527435l0.0526123,0.0420837C590.0665283,273.3545227,590.5088501,285.2218933,583.7379761,297.3525696z"/>
			<path class="st4" d="M531.8418579,302.8711548c10.3700562,2.8652344,25.2023315-6.3372498,33.132019-20.536438
				c7.9296265-14.1992188,5.9622803-28.0332336-4.4077759-30.898468
				c-10.3702393-2.8652649-25.2040405,6.3266296-33.133728,20.5258484
				C519.5027466,286.1612854,521.4716187,300.0058899,531.8418579,302.8711548"/>
			<path class="st1" d="M539.8939209,288.4520569c4.5559082,1.2587891,11.0722046-2.7841492,14.5559692-9.0223083
				c3.4837036-6.2381592,2.6193848-12.3158875-1.9365234-13.574646c-4.5559692-1.2588196-11.072876,2.77948-14.5566406,9.0176392
				S535.3379517,287.1932678,539.8939209,288.4520569"/>
		</g>
	</g>
</g>
<g id="INTEGRATED_1">
	<g>
		<g>
			<path class="st5" d="M504.9877014,404.956665h-57.4074707c-1.2566223,0-2.4618225-0.4987488-3.3503113-1.3882446
				l-29.7947998-29.7947998c-1.8509827-1.8499756-1.8509827-4.850647,0-6.700592c1.848938-1.8509827,4.8516541-1.8509827,6.700592,0
				l28.4075928,28.4065552h55.444397c2.6170959,0,4.7385254,2.1214294,4.7385254,4.7385254
				S507.6047974,404.956665,504.9877014,404.956665z"/>
		</g>
		<g>
			<path class="st5" d="M540.1027222,416.769928c-7.9291992,14.1945496-22.7556152,23.3978271-33.1277161,20.5336609
				c-1.927002-0.5370483-3.5697021-1.4425964-4.9069824-2.6746216l-18.6698914-14.9211731l37.560791-46.9115295
				l18.6804199,14.9527588l0.0526733,0.0420837C546.4312134,392.7718811,546.8735352,404.6392517,540.1027222,416.769928z"/>
			<path class="st4" d="M488.206543,422.2885132c10.3700867,2.8652344,25.2023926-6.3372498,33.132019-20.536438
				c7.9296875-14.1992188,5.9622803-28.0332336-4.4077759-30.898468
				c-10.3702087-2.8652649-25.20401,6.3266296-33.1336975,20.5258484
				C475.8674316,405.5786438,477.8363342,419.4232483,488.206543,422.2885132"/>
			<path class="st1" d="M496.2586365,407.8694153c4.5558777,1.2587891,11.0721741-2.7841492,14.5559387-9.0223083
				s2.6194458-12.3158875-1.9364929-13.5746765s-11.0729065,2.7795105-14.5566711,9.0176697
				C490.837677,400.5282593,491.7026672,406.6106262,496.2586365,407.8694153"/>
		</g>
	</g>
</g>
<g id="ORNAMENT_8">
	<g>
		<line class="st0" x1="134.3751068" y1="71.2508545" x2="134.3751068" y2="76.8198166"/>
		<line class="st0" x1="134.3751068" y1="82.7642136" x2="134.3751068" y2="88.3331757"/>
		<line class="st0" x1="142.916275" y1="79.7920151" x2="137.3473053" y2="79.7920151"/>
		<line class="st0" x1="131.4029083" y1="79.7920151" x2="125.8339539" y2="79.7920151"/>
	</g>
</g>
<g id="ORNAMENT_7">
	<g>
		<line class="st0" x1="80.8471298" y1="296.8625793" x2="80.8471298" y2="302.4315491"/>
		<line class="st0" x1="80.8471298" y1="308.375946" x2="80.8471298" y2="313.9449158"/>
		<line class="st0" x1="89.3882904" y1="305.4037476" x2="83.8193283" y2="305.4037476"/>
		<line class="st0" x1="77.874939" y1="305.4037476" x2="72.3059769" y2="305.4037476"/>
	</g>
</g>
<g id="ORNAMENT_6">
	<g>
		<line class="st0" x1="408.6124878" y1="433.8334045" x2="408.6124878" y2="438.4945984"/>
		<line class="st0" x1="408.6124878" y1="443.4700623" x2="408.6124878" y2="448.1312561"/>
		<line class="st0" x1="415.7614136" y1="440.9823303" x2="411.1002197" y2="440.9823303"/>
		<line class="st0" x1="406.1247864" y1="440.9823303" x2="401.4635925" y2="440.9823303"/>
	</g>
</g>
<g id="ORNAMENT_5_1_">
	<g>
		<line class="st0" x1="469.2015381" y1="61.1496964" x2="469.2015381" y2="66.9832382"/>
		<line class="st0" x1="469.2015381" y1="73.2100449" x2="469.2015381" y2="79.0435867"/>
		<line class="st0" x1="478.148468" y1="70.0966415" x2="472.3149414" y2="70.0966415"/>
		<line class="st0" x1="466.0881348" y1="70.0966415" x2="460.2545776" y2="70.0966415"/>
	</g>
</g>
<g id="ORNAMENT_5">
	<circle class="st0" cx="76.2242126" cy="180.4949493" r="4.6229186"/>
</g>
<g id="ORNAMENT_4">
	<circle class="st0" cx="506.1167908" cy="183.7371674" r="4.6229186"/>
</g>
<g id="ORNAMENT_3">
	<circle class="st10" cx="139.0518646" cy="122.9477158" r="3.2322271"/>
</g>
<g id="ORNAMENT_2">
	<circle class="st10" cx="506.1167908" cy="332.0453491" r="4.7626801"/>
</g>
<g id="ORNAMENT_1">
	<circle class="st10" cx="411.9993286" cy="88.9092941" r="5.6037307"/>
</g>
<g id="RIGHT_LEG">
	<g>
		<g>
			<polygon class="st2" points="201.7612762,380.7305908 197.6263275,402.5192261 187.8245087,400.8304138 190.849823,378.8505859 
							"/>
			<path class="st6" d="M203.841156,390.2986755l-17.5385742,3.2002563c0,0-3.2523956,12.3572388-21.4832153,29.6731262
				c-11.6709747,11.0852661-7.1132507,17.8102722-7.1132507,17.8102722l36.2447357-6.6135864l6.5089264-16.9573669
				l3.3740234,15.1540527l9.8645477-1.7999878C210.2747192,406.8452148,203.841156,390.2986755,203.841156,390.2986755z"/>
		</g>
		<g>
			<path class="st4" d="M299.4962463,283.4770203c-11.5936279,4.2752075-65.1707306,2.7694397-65.1707306,2.7694397
				l-2.0428314,10.9091492l-15.6056061,83.1561279c-28.0205383,9.5086365-61.053421-5.5072937-61.053421-5.5072937
				s0.7792206-3.0325928,2.1270294-8.1186523v-0.0105286c6.4234009-24.1876526,25.5986481-94.6444397,33.9068909-104.4690247
				c11.0039673-13.0151672,109.5971832-24.5245514,109.5971832-24.5245514
				C313.7644958,248.6961823,320.5247803,275.7163696,299.4962463,283.4770203z"/>
			<path class="st9" d="M192.0317841,368.4862366l19.5171509-96.2720947h68.6268463c0,0,16.5730286-4.7541809,16.8232422-24.5215607
				"/>
			<path class="st6" d="M299.4962463,283.4770203c-11.5936279,4.2752075-65.1707306,2.7694397-65.1707306,2.7694397
				l-2.0428314,10.9091492l-38.4664459-15.9320374l-36.0655518,85.4516907
				c6.4234009-24.1876526,25.5986481-94.6444397,33.9068909-104.4690247
				c11.0039673-13.0151672,109.5971832-24.5245514,109.5971832-24.5245514
				C313.7644958,248.6961823,320.5247803,275.7163696,299.4962463,283.4770203z"/>
			<path class="st9" d="M161.6300659,367.4482422c0,0,25.1296234,12.2978821,52.0682831,4.6036377"/>
		</g>
	</g>
</g>
<g id="LEFT_LEG">
	<g>
		<g>
			<polygon class="st2" points="140.1685486,360.6529846 128.8569031,379.7288818 120.2170563,374.8013306 130.5506134,355.1676025 
							"/>
			<path class="st6" d="M134.4601746,378.9577026l-12.6128922-12.5999451c0,0-12.0118103,4.3583374-36.6253662-0.7774048
				c-15.7570648-3.2877808-18.6929092,4.2871399-18.6929092,4.2871399l26.0654373,26.0386963l17.6476898-4.2986755
				l-10.5403519,11.3987122l7.0940933,7.086792C124.5160751,393.6646118,134.4601746,378.9577026,134.4601746,378.9577026z"/>
		</g>
		<g>
			<path class="st4" d="M295.3082581,230.8027344l-8.3617249,17.6989899c0,0-97.5420532-17.9492035-111.4292603-10.8179321
				c-13.887207,7.1312561-63.0554123,105.0923615-63.0554123,105.0923615s12.5168228,25.6799316,45.292717,23.9122009
				c0,0,23.5976562-85.9876099,31.3770752-100.3648071c0,0,58.2883453,31.264679,88.6900635,33.1413269
				s52.456543-3.7822266,59.0310669-24.8581543C349.3739319,234.4677277,315.3419495,216.304184,295.3082581,230.8027344z"/>
			<path class="st9" d="M120.2170563,341.7752686c0,0,15.5717621,18.541626,39.5297089,17.394989"/>
			<path class="st9" d="M143.8644562,350.498291l42.7875977-96.3093414c0,0,74.0650787,19.7767181,98.4615326,22.7793732
				c24.3964233,3.0026245,29.2145081-22.7793732,29.2145081-22.7793732"/>
			<path class="st9" d="M303.7549744,251.1956635l-1.425293,3.4923706
				c-1.6391296,4.0164032-1.4729004,8.5435638,0.4563599,12.4289398l2.0673828,4.1635437"/>
		</g>
	</g>
</g>
<g id="HAIR">
	<path class="st6" d="M313.3722229,83.8670807c0,0,0.0619507-0.1628342,0.2002258-0.4482574
		c0.9766235-2.0159302,5.7603149-10.1471558,19.4115601-10.2118454
		c15.5839844-0.0738525,23.6708984,18.0475006,19.7697754,26.3379822s5.3781433,10.8146973,15.074585,13.673111
		c9.6964722,2.8584137,18.4829712,14.6909561,10.9755554,27.0560837
		c-7.5074463,12.3651276-51.9263916,19.934845-56.301239,6.7275238
		c-4.3748169-13.2073212,3.5636597-25.1130142,1.2327271-35.8840866L313.3722229,83.8670807z"/>
</g>
<g id="NECK">
	<g>
		<polygon class="st2" points="327.678009,108.3494873 328.1418457,115.8531418 328.6125183,123.4593506 336.4891663,123.4819183 
			337.0197754,109.1347427 337.179718,104.7635727 		"/>
		<path class="st6" d="M327.678009,108.3494873l0.692688,11.2018967c7.3986511-1.0638962,7.8057556-5.8225327,8.6256409-9.7829895
			l0.1833801-5.0048218L327.678009,108.3494873z"/>
	</g>
</g>
<g id="RIGHT_ARM">
	<g>
		<path class="st1" d="M317.8096008,163.5653381c-7.1068726,24.5741882-36.4173584,63.2054443-44.2374268,65.8538361
			c-7.2338867,2.4581299-45.2275391-10.5656128-62.0579071-16.5776062
			c-4.9207611-1.7699432-8.0321808-2.9295044-8.0321808-2.9295044s-6.5350647-13.2046204,6.1534271-17.9157257l8.3598633,1.0763245
			l46.9722443,6.0198975c0,0,15.3608704-37.0766449,24.2507629-46.9738922
			c5.722168-6.3808136,12.3547363-7.2235718,17.9161377-6.2073975
			C315.2234497,147.3833466,320.0928345,155.6634674,317.8096008,163.5653381z"/>
		<path class="st4" d="M211.5170288,212.8313904l-0.0027618,0.0101776
			c-4.9207611-1.7699432-8.0321808-2.9295044-8.0321808-2.9295044s-6.5350647-13.2046204,6.1534271-17.9157257l8.3598633,1.0763245
			C218.2242126,193.5165558,223.2581787,203.6850586,211.5170288,212.8313904z"/>
		<g>
			<path class="st2" d="M207.3999023,194.5075989l-6.3041077-3.5231171l-6.0653076-3.4270172
				c-2.0659332-1.1672821-4.6168976-1.053009-6.5701599,0.2943268l-4.3950195,3.0316315
				c-1.9488831,1.3443146-2.9620056,3.6811829-2.6110229,6.0225677l0.8212433,5.4783936l15.1376648,4.1023102l5.5653381-0.9254913
				l5.4339447,1.4725952c0,0,3.2727661-2.0320435,4.0332642-6.7516022
				C213.2062531,195.5626373,207.3999023,194.5075989,207.3999023,194.5075989z"/>
			<polyline class="st11" points="185.439621,202.5394287 184.8160858,196.0513306 187.6412811,192.4421997 			"/>
			<polyline class="st11" points="192.3054199,193.7061768 188.9952393,197.6699677 189.6056519,203.6684113 			"/>
			<polyline class="st11" points="196.5015106,195.621048 194.1206665,199.2047882 193.0632324,204.3623657 			"/>
		</g>
		<path class="st3" d="M300.6363831,197.8098755c-10.5420837,16.1754303-22.4860229,30.0588226-27.064209,31.6092987
			c-6.9206848,2.3516998-41.9953918-9.4669342-59.7571411-15.7591553"/>
		<path class="st3" d="M267.3378296,201.415451c1.8937073,2.0436707,4.4875793,5.2933655,6.0898132,9.170929"/>
	</g>
</g>
<g id="BODY">
	<g>
		<path class="st1" d="M353.1300659,128.2066956c0,0-15.8381348-11.7228851-36.2443848-7.179451l0.8910522,11.360878
			l30.2762146,6.1299591L353.1300659,128.2066956z"/>
		<g>
			<path class="st1" d="M351.9989929,261.0055542c4.0838623-31.008194,11.5937195-79.2880859,14.428772-97.3246918
				c0.7834167-4.9842529-0.6264343-10.0616302-3.8983765-13.9023132
				c-5.3909912-6.3280029-14.9877625-15.2047577-28.1334229-18.0511475
				c-21.1867371-4.5874634-37.5097046,9.3644409-37.5097046,9.3644409s-14.8530273,14.3061523-16.615387,22.6946259
				c-1.7623901,8.3885345-1.4324951,32.8339691-1.4324951,32.8339691s-9.3098755,23.5934296-17.7331238,42.7334442
				C261.1052551,239.3538818,297.9516907,256.0063171,351.9989929,261.0055542z"/>
			<path class="st3" d="M279.3120117,172.3210449c-0.6607971,10.4299011-0.4736328,24.2993927-0.4736328,24.2993927
				s-9.3098755,23.5934296-17.7331238,42.7334442"/>
			<path class="st3" d="M348.1375732,254.1889496c0,0-59.9805908-9.3742371-81.832489-19.7212219"/>
			<path class="st3" d="M346.4527893,136.3318329c-3.5990906-2.0008087-7.6264038-3.6450806-12.0568542-4.6043854
				c-4.7559814-1.0298004-9.2668762-1.1253662-13.4030457-0.6542664"/>
		</g>
	</g>
</g>
<g id="HEAD">
	<g>
		<path class="st2" d="M326.7262878,85.1293488c9.1476746,3.7417831,16.6260376,29.6944733,1.387146,32.6865005
			C312.8745728,120.8078842,308.0903931,77.5064926,326.7262878,85.1293488z"/>
		<path class="st6" d="M338.90625,105.3715363c0,0-3.801239-7.1684952-8.0638428-11.4076233
			c0,0-8.5346375,6.8305588-16.733551,4.8580322s-14.2645874-16.6101379-7.8716431-20.3256912
			c6.3929443-3.7155457,10.7547913,2.6059952,10.7547913,2.6059952S345.0174866,69.5015182,338.90625,105.3715363z"/>
		<g>
			<path class="st2" d="M335.4177551,103.4019165c0,0,1.3847961-9.965683,9.3544922-8.8836746
				c7.969696,1.0820007,2.4885559,16.6028595-9.1702881,12.9192352L335.4177551,103.4019165z"/>
			<g>
				<g>
					<path class="st6" d="M338.668335,105.3543777c0.2065125-0.0228119,0.3881226-0.1691208,0.4453735-0.3819199
						c0.015564-0.0579376,1.6025085-5.7656784,6.1262512-6.971283c0.2780457-0.0736542,0.4428101-0.3586426,0.3687134-0.6361465
						c-0.0737-0.2785721-0.3600769-0.4421616-0.6361389-0.3687286c-5.1111145,1.3614731-6.7947083,7.4478683-6.8637695,7.7064362
						c-0.0740967,0.2775269,0.0902405,0.562439,0.3677673,0.6365433
						C338.5408325,105.3567123,338.6057129,105.3612976,338.668335,105.3543777z"/>
				</g>
				<g>
					<path class="st6" d="M342.7510986,103.9506454c0.278717-0.0307922,0.4840088-0.2773285,0.4610596-0.5589523
						c-0.0062256-0.0703506-0.1606445-1.7546692-1.6451721-3.6267776c-0.1781921-0.2251205-0.5065002-0.2639694-0.7304382-0.0843735
						c-0.2251282,0.1781921-0.263092,0.5053864-0.0843811,0.7304535c1.2766724,1.6098938,1.4219666,3.0544968,1.4230347,3.0686874
						c0.0264282,0.2853317,0.2782288,0.4966965,0.5632019,0.4718552
						C342.7424927,103.9515915,342.7470398,103.9510956,342.7510986,103.9506454z"/>
				</g>
			</g>
		</g>
	</g>
</g>
<g id="FACE">
	<g>
		<path class="st6" d="M330.7221375,99.8375473c0,0-2.206543-3.1269226-4.5757446-1.4315033
			c0,0-0.190033-0.7589645-0.8655396-0.6707916c-0.6755371,0.0881729-0.4135132,2.2037125-0.4135132,2.2037125
			S327.9152527,99.2016602,330.7221375,99.8375473z"/>
		<path class="st6" d="M316.5167542,103.7125702c0,0-0.332489-3.484169,1.8099976-2.8385773
			c0,0-0.0486145-0.6451645,0.3725586-0.7846832c0.7284546-0.2413177,1.1914062,1.7170486,1.1914062,1.7170486
			S317.7468872,102.1816101,316.5167542,103.7125702z"/>
		<g>
			
				<ellipse transform="matrix(0.9826687 -0.1853705 0.1853705 0.9826687 -13.6739979 62.5569115)" class="st6" cx="327.708252" cy="104.4050064" rx="1.4368581" ry="1.776479"/>
			<circle class="st12" cx="327.2801514" cy="103.8443832" r="0.3820736"/>
		</g>
		<g>
			
				<ellipse transform="matrix(0.9826687 -0.1853705 0.1853705 0.9826687 -14.1090097 61.0422478)" class="st6" cx="319.390564" cy="105.9740524" rx="1.4368581" ry="1.776479"/>
			<circle class="st12" cx="318.9624634" cy="105.4134369" r="0.3820736"/>
		</g>
		<g>
			<path class="st6" d="M323.7256775,111.3050156c0.4236145-0.0468063,0.8113403-0.1688614,1.0851746-0.2946854
				c0.2606812-0.1197739,0.3738708-0.427681,0.2550964-0.6884995c-0.1187134-0.2603073-0.427948-0.3763962-0.6882629-0.2576828
				c-0.0145874,0.0067215-1.412384,0.6267471-1.952179-0.2345734c-0.1166077-0.1859283-0.0828552-0.2642746-0.0698242-0.2943344
				c0.1281433-0.2972946,0.8730774-0.5906754,1.3615723-0.6885986c0.2780457-0.0552521,0.4609985-0.3238449,0.4107971-0.6024628
				l-0.6180115-3.4193115c-0.0516968-0.2830429-0.3237305-0.4645767-0.6044617-0.419754
				c-0.2831116,0.0512085-0.4703979,0.3218155-0.4197693,0.6044693l0.5323486,2.9447861
				c-0.5442505,0.1715469-1.3384705,0.5230103-1.6172791,1.168129c-0.1205139,0.2785645-0.1935425,0.7230911,0.1433411,1.2603226
				C322.0733032,111.2259064,322.9577026,111.3898621,323.7256775,111.3050156z"/>
		</g>
		<path class="st12" d="M324.2590637,114.4512787c0,0,4.169342,1.8440552,5.8208008-3.1947098L324.2590637,114.4512787z"/>
	</g>
</g>
<g id="LEFT_ARM">
	<g>
		<path class="st1" d="M367.4468689,161.5491791c-0.4317017,25.5775452-18.6171875,70.5305023-25.47229,75.1321411
			c-6.3390808,4.2646637-46.4165649,1.6321411-64.2335205,0.2316895c-5.2124329-0.4212189-8.5188293-0.7265778-8.5188293-0.7265778
			s-9.7614136-11.0355682,1.2530823-18.9015198l8.3503723-1.1477966l46.9115295-6.4759674
			c0,0,5.1281433-39.8037262,11.119751-51.6816864c3.8539734-7.6553955,10.0352173-10.2036591,15.6687927-10.6775208
			C360.7181091,146.6069794,367.5837402,153.3251801,367.4468689,161.5491791z"/>
		<path class="st4" d="M277.7410583,236.9024658v0.0105438c-5.2124329-0.4212189-8.5188293-0.7265778-8.5188293-0.7265778
			s-9.7614136-11.0355682,1.2530823-18.9015198l8.3503723-1.1477966
			C279.1626587,216.5057068,286.6810913,225.0034943,277.7410583,236.9024658z"/>
		<g>
			<path class="st2" d="M268.9743958,220.2935028l-7.0061646-1.7515411l-6.7505341-1.7212219
				c-2.2993164-0.5862732-4.7315826,0.1912689-6.2644348,2.0026093l-3.4490509,4.0756531
				c-1.5294037,1.8072662-1.8960114,4.3277893-0.9448242,6.4958649l2.2256012,5.0728607h15.6837006l5.1294861-2.3489685h5.6299744
				c0,0,2.6272888-2.817337,2.1268616-7.5715179C274.8545532,219.7930603,268.9743958,220.2935028,268.9743958,220.2935028z"/>
			<polyline class="st11" points="249.8794861,233.7897339 247.5805969,227.6906281 249.3634186,223.4681702 			"/>
			<polyline class="st11" points="254.1957855,223.4681702 252.0376434,228.15979 254.1957855,233.7897339 			"/>
			<polyline class="st11" points="258.7466736,224.2188263 257.3860779,228.3005371 257.7145081,233.5551605 			"/>
		</g>
		<path class="st3" d="M359.8287048,199.0934143c-5.9441528,18.3697357-13.8408508,34.8939056-17.854126,37.5879059
			c-6.0646362,4.0800323-43.0095825,1.847168-61.7987976,0.4198608"/>
		<path class="st3" d="M280.815979,215.8623505l44.9212341-6.2012024c0,0,5.1281433-39.8037262,11.119751-51.6816864
			c3.8539734-7.6553955,10.0352173-10.2036591,15.6687927-10.6775208c2.0062561-0.1701965,3.9329834,0.1042023,5.6967468,0.7364502"
			/>
		<path class="st3" d="M325.7372131,209.6611481c0,0,6.7617493,3.1570435,11.171875,8.8808136"/>
	</g>
</g>
<g id="LAPTOP">
	<g>
		<path class="st5" d="M283.0343628,234.4309235h-40.3036194c-1.1483154,0-2.0792084,0.9308929-2.0792084,2.0792084v5.0997314
			c0,1.1483154,0.9308929,2.0792084,2.0792084,2.0792084h35.6699829c3.7073975,0,6.7128601-3.0054626,6.7128601-6.7128754
			v-0.4660645C285.1135864,235.3618164,284.1826782,234.4309235,283.0343628,234.4309235z"/>
		<path class="st9" d="M283.0343628,234.4309235h-40.3036194c-1.1483154,0-2.0792084,0.9308929-2.0792084,2.0792084v5.0997314
			c0,1.1483154,0.9308929,2.0792084,2.0792084,2.0792084h35.6699829c3.7073975,0,6.7128601-3.0054626,6.7128601-6.7128754
			v-0.4660645C285.1135864,235.3618164,284.1826782,234.4309235,283.0343628,234.4309235z"/>
		<path class="st4" d="M244.9052734,243.6890717h-82.6316071c-2.8241119,0-5.3054352-1.8737183-6.0784149-4.5899963
			l-17.3225861-60.8718719c-0.7276611-2.5570068,1.1927338-5.1001434,3.8512726-5.1001434h82.6316071
			c2.8241119,0,5.3054352,1.8737183,6.0784149,4.5899811l17.3225708,60.8718719
			C249.4841919,241.1459351,247.563797,243.6890717,244.9052734,243.6890717z"/>
		<path class="st5" d="M240.651535,243.6890717H158.019928c-2.8241119,0-5.3054352-1.8737183-6.0784149-4.5899963
			l-17.3225861-60.8718719c-0.7276611-2.5570068,1.1927338-5.1001434,3.8512726-5.1001434h82.6316071
			c2.8241119,0,5.3054352,1.8737183,6.0784149,4.5899811l17.3225708,60.8718719
			C245.2304535,241.1459351,243.3100586,243.6890717,240.651535,243.6890717z"/>
	</g>
</g>
</svg>
